<?xml version="1.0" encoding="utf-8"?>
<!-- Uploaded to: SVG Repo, www.svgrepo.com, Generator: SVG Repo Mixer Tools -->
<svg width="800px" height="800px" viewBox="0 0 1024 1024" fill="#000000" class="icon"  version="1.1" xmlns="http://www.w3.org/2000/svg"><path d="M40.628 184.1c-4.42 0-8.076-3.576-8.076-7.996 0-4.422 3.498-7.998 7.904-7.998h0.172a8.002 8.002 0 0 1 7.998 7.998 8 8 0 0 1-7.998 7.996zM72.62 184.1c-4.42 0-8.076-3.576-8.076-7.996 0-4.422 3.498-7.998 7.904-7.998h0.172a8.002 8.002 0 0 1 7.998 7.998 8.004 8.004 0 0 1-7.998 7.996zM104.61 184.1c-4.42 0-8.076-3.576-8.076-7.996 0-4.422 3.498-7.998 7.904-7.998h0.172a8.002 8.002 0 0 1 7.998 7.998 8.004 8.004 0 0 1-7.998 7.996z" fill="" /><path d="M1015.848 200.096H8.156a7.994 7.994 0 0 1-7.998-7.998v-15.994c0-13.23 10.762-23.994 23.992-23.994h975.702c13.23 0 23.992 10.764 23.992 23.994v15.994a7.994 7.994 0 0 1-7.996 7.998zM16.152 184.1h991.696v-7.996c0-4.336-3.656-7.998-7.996-7.998H24.15a8.008 8.008 0 0 0-7.998 7.998v7.996z" fill="" /><path d="M1015.848 871.89H8.156a7.994 7.994 0 0 1-7.998-7.998V192.098a7.994 7.994 0 0 1 7.998-7.998h1007.692a7.994 7.994 0 0 1 7.996 7.998v671.794a7.994 7.994 0 0 1-7.996 7.998zM16.152 855.894h991.696V200.096H16.152v655.798z" fill="" /><path d="M56.14 743.93a7.994 7.994 0 0 1-7.998-7.998V240.084a7.994 7.994 0 0 1 7.998-7.998 7.994 7.994 0 0 1 7.998 7.998v495.848a7.994 7.994 0 0 1-7.998 7.998z" fill="" /><path d="M967.86 743.93H56.14c-4.42 0-7.998-3.578-7.998-7.998s3.578-7.998 7.998-7.998h911.72c4.422 0 8 3.578 8 7.998s-3.578 7.998-8 7.998zM791.914 791.914H232.086a7.994 7.994 0 0 1-7.998-7.998 7.994 7.994 0 0 1 7.998-7.998h559.828a7.992 7.992 0 0 1 7.996 7.998 7.99 7.99 0 0 1-7.996 7.998zM647.958 823.904H376.042a7.994 7.994 0 0 1-7.998-7.998 7.992 7.992 0 0 1 7.998-7.996h271.916c4.422 0 8 3.576 8 7.996a7.994 7.994 0 0 1-8 7.998zM951.868 328.056c-13.23 0-23.996-10.762-23.996-23.992s10.766-23.994 23.996-23.994 23.992 10.764 23.992 23.994-10.762 23.992-23.992 23.992z m0-31.99c-4.406 0-8 3.584-8 7.998a8.008 8.008 0 0 0 8 7.996 8.008 8.008 0 0 0 7.996-7.996 8.008 8.008 0 0 0-7.996-7.998zM695.946 599.972c-13.23 0-23.992-10.762-23.992-23.992s10.762-23.992 23.992-23.992 23.992 10.762 23.992 23.992-10.762 23.992-23.992 23.992z m0-31.99c-4.406 0-8 3.594-8 7.998s3.594 7.998 8 7.998c4.402 0 7.996-3.594 7.996-7.998s-3.594-7.998-7.996-7.998zM392.038 456.018c-13.23 0-23.994-10.764-23.994-23.994 0-13.228 10.762-23.992 23.994-23.992 13.23 0 23.994 10.764 23.994 23.992-0.002 13.23-10.766 23.994-23.994 23.994z m0-31.99a8.006 8.006 0 0 0-7.998 7.996c0 4.414 3.592 7.998 7.998 7.998s7.998-3.584 7.998-7.998a8.01 8.01 0 0 0-7.998-7.996z" fill="" /><path d="M120.12 647.958c-13.23 0-23.992-10.764-23.992-23.994s10.762-23.992 23.992-23.992 23.992 10.762 23.992 23.992-10.762 23.994-23.992 23.994z m0-31.99a8.014 8.014 0 0 0-7.998 7.996 8.014 8.014 0 0 0 7.998 7.998 8.012 8.012 0 0 0 7.998-7.998 8.012 8.012 0 0 0-7.998-7.996z" fill="" /><path d="M131.242 620.842a7.936 7.936 0 0 1-3.888-1.016 7.994 7.994 0 0 1-3.092-10.886c4.202-7.544 104.812-184.912 251.782-184.912a7.992 7.992 0 0 1 7.998 7.996 7.994 7.994 0 0 1-7.998 7.998c-137.662 0-236.834 174.948-237.818 176.728a7.992 7.992 0 0 1-6.984 4.092z" fill="" /><path d="M680.136 582.792c-71.804 0-116.746-41.956-156.39-78.984-35.13-32.802-68.306-63.786-115.714-63.786a7.994 7.994 0 0 1-7.998-7.998 7.992 7.992 0 0 1 7.998-7.996c53.718 0 89.128 33.076 126.632 68.088 39.316 36.724 79.976 74.682 145.472 74.682a7.99 7.99 0 0 1 7.996 7.996 7.992 7.992 0 0 1-7.996 7.998z" fill="" /><path d="M709.55 575.652a7.984 7.984 0 0 1-7.75-6.014 7.998 7.998 0 0 1 5.766-9.732c118.242-30.272 196.532-111.864 232.676-242.512 1.156-4.256 5.546-6.738 9.844-5.576a7.99 7.99 0 0 1 5.558 9.842c-37.77 136.574-119.898 221.94-244.114 253.742a7.88 7.88 0 0 1-1.98 0.25z" fill="" /></svg>