<svg xmlns="http://www.w3.org/2000/svg"  viewBox="0 0 48 48" width="48px" height="48px"><path d="M 15 4 C 8.9365932 4 4 8.9365932 4 15 L 4 33 C 4 39.063407 8.9365932 44 15 44 L 33 44 C 39.063407 44 44 39.063407 44 33 L 44 15 C 44 8.9365932 39.063407 4 33 4 L 15 4 z M 15 6 L 33 6 C 37.982593 6 42 10.017407 42 15 L 42 33 C 42 37.982593 37.982593 42 33 42 L 15 42 C 10.017407 42 6 37.982593 6 33 L 6 15 C 6 10.017407 10.017407 6 15 6 z M 35 11 C 33.895 11 33 11.895 33 13 C 33 14.105 33.895 15 35 15 C 36.105 15 37 14.105 37 13 C 37 11.895 36.105 11 35 11 z M 24 14 C 18.488666 14 14 18.488666 14 24 C 14 29.511334 18.488666 34 24 34 C 29.511334 34 34 29.511334 34 24 C 34 18.488666 29.511334 14 24 14 z M 24 16 C 28.430666 16 32 19.569334 32 24 C 32 28.430666 28.430666 32 24 32 C 19.569334 32 16 28.430666 16 24 C 16 19.569334 19.569334 16 24 16 z"/></svg>